<?xml version="1.0" encoding="UTF-8"?><svg xmlns:svg="http://www.w3.org/2000/svg" xmlns="http://www.w3.org/2000/svg" xmlns:xlink="http://www.w3.org/1999/xlink" version="2.0" width="1200" height="860" ><style >
svg {
  font-family: Helvetica, Arial, sans-serif;
  font-size: 11px;
}
rect {
  stroke-linecap: butt;
  stroke-width: 3;
  stroke: #fff;
/*  stroke-opacity: 1; */
}
rect:hover {
  stroke: #fff;
/*  stroke-opacity: 1; /*
}
polygon { fill: #000; }</style><defs ><polygon id="ahead" points="0 0, -12 4, -12 -4" /><filter id="glow" x="0" y="0" ><feGaussianBlur in="SourceAlpha" stdDeviation="2" result="blurred" /><feFlood flood-color="#fff" /><feComposite operator="in" in2="blurred" /><feComponentTransfer ><feFuncA type="linear" slope="10" intercept="0" /></feComponentTransfer><feMerge ><feMergeNode /><feMergeNode in="SourceGraphic" /></feMerge></filter></defs><g ><text x="100.0" y="20.0" text-anchor="middle" alignment-baseline="middle" fill="#000" >c6</text><text x="300.0" y="20.0" text-anchor="middle" alignment-baseline="middle" fill="#000" >c7</text><text x="500.0" y="20.0" text-anchor="middle" alignment-baseline="middle" fill="#000" >c8</text><text x="700.0" y="20.0" text-anchor="middle" alignment-baseline="middle" fill="#000" >n0</text><text x="900.0" y="20.0" text-anchor="middle" alignment-baseline="middle" fill="#000" >n1</text><text x="1100.0" y="20.0" text-anchor="middle" alignment-baseline="middle" fill="#000" >n2</text></g><g ><line stroke="#ccc" x1="100.0" y1="30.0" x2="100.0" y2="770.0" /><line stroke="#ccc" x1="300.0" y1="30.0" x2="300.0" y2="770.0" /><line stroke="#ccc" x1="500.0" y1="30.0" x2="500.0" y2="770.0" /><line stroke="#ccc" x1="700.0" y1="30.0" x2="700.0" y2="770.0" /><line stroke="#ccc" x1="900.0" y1="30.0" x2="900.0" y2="770.0" /><line stroke="#ccc" x1="1100.0" y1="30.0" x2="1100.0" y2="770.0" /></g><g ><g transform="translate(100.0 50.0) rotate(3.4336303624505224) " ><rect x="0" y="-2.5" height="5" width="997.7983829094555" fill="#81BFFC" ><title >c6 → n2 {:type "generate", :msg_id 1}</title></rect><use xlink:href="#ahead" x="1001.7983829094555" y="0" /><text text-anchor="middle" x="500.89919145472777" y="-4" transform="" filter="url(#glow)" style="fill: #fff" >generate {}</text><text text-anchor="middle" x="500.89919145472777" y="-4" transform="" >generate {}</text></g><g transform="translate(300.0 90.0) rotate(3.8140748342903543) " ><rect x="0" y="-2.5" height="5" width="597.3318551349163" fill="#81BFFC" ><title >c7 → n1 {:type "generate", :msg_id 1}</title></rect><use xlink:href="#ahead" x="601.3318551349163" y="0" /><text text-anchor="middle" x="300.66592756745814" y="-4" transform="" filter="url(#glow)" style="fill: #fff" >generate {}</text><text text-anchor="middle" x="300.66592756745814" y="-4" transform="" >generate {}</text></g><g transform="translate(500.0 70.0) rotate(21.801409486351815) " ><rect x="0" y="-2.5" height="5" width="211.40659228538016" fill="#81BFFC" ><title >c8 → n0 {:type "generate", :msg_id 1}</title></rect><use xlink:href="#ahead" x="215.40659228538016" y="0" /><text text-anchor="middle" x="107.70329614269008" y="-4" transform="" filter="url(#glow)" style="fill: #fff" >generate {}</text><text text-anchor="middle" x="107.70329614269008" y="-4" transform="" >generate {}</text></g><g transform="translate(100.0 170.0) rotate(1.1457628381751035) " ><rect x="0" y="-2.5" height="5" width="996.199980003999" fill="#81BFFC" ><title >c6 → n2 {:type "generate", :msg_id 2}</title></rect><use xlink:href="#ahead" x="1000.199980003999" y="0" /><text text-anchor="middle" x="500.0999900019995" y="-4" transform="" filter="url(#glow)" style="fill: #fff" >generate {}</text><text text-anchor="middle" x="500.0999900019995" y="-4" transform="" >generate {}</text></g><g transform="translate(300.0 210.0) rotate(1.9091524329963763) " ><rect x="0" y="-2.5" height="5" width="596.3332407921454" fill="#81BFFC" ><title >c7 → n1 {:type "generate", :msg_id 2}</title></rect><use xlink:href="#ahead" x="600.3332407921454" y="0" /><text text-anchor="middle" x="300.1666203960727" y="-4" transform="" filter="url(#glow)" style="fill: #fff" >generate {}</text><text text-anchor="middle" x="300.1666203960727" y="-4" transform="" >generate {}</text></g><g transform="translate(500.0 250.0) rotate(5.710593137499643) " ><rect x="0" y="-2.5" height="5" width="196.9975124224178" fill="#81BFFC" ><title >c8 → n0 {:type "generate", :msg_id 2}</title></rect><use xlink:href="#ahead" x="200.9975124224178" y="0" /><text text-anchor="middle" x="100.4987562112089" y="-4" transform="" filter="url(#glow)" style="fill: #fff" >generate {}</text><text text-anchor="middle" x="100.4987562112089" y="-4" transform="" >generate {}</text></g><g transform="translate(100.0 290.0) rotate(1.1457628381751035) " ><rect x="0" y="-2.5" height="5" width="996.199980003999" fill="#81BFFC" ><title >c6 → n2 {:type "generate", :msg_id 3}</title></rect><use xlink:href="#ahead" x="1000.199980003999" y="0" /><text text-anchor="middle" x="500.0999900019995" y="-4" transform="" filter="url(#glow)" style="fill: #fff" >generate {}</text><text text-anchor="middle" x="500.0999900019995" y="-4" transform="" >generate {}</text></g><g transform="translate(300.0 330.0) rotate(1.9091524329963763) " ><rect x="0" y="-2.5" height="5" width="596.3332407921454" fill="#81BFFC" ><title >c7 → n1 {:type "generate", :msg_id 3}</title></rect><use xlink:href="#ahead" x="600.3332407921454" y="0" /><text text-anchor="middle" x="300.1666203960727" y="-4" transform="" filter="url(#glow)" style="fill: #fff" >generate {}</text><text text-anchor="middle" x="300.1666203960727" y="-4" transform="" >generate {}</text></g><g transform="translate(500.0 370.0) rotate(5.710593137499643) " ><rect x="0" y="-2.5" height="5" width="196.9975124224178" fill="#81BFFC" ><title >c8 → n0 {:type "generate", :msg_id 3}</title></rect><use xlink:href="#ahead" x="200.9975124224178" y="0" /><text text-anchor="middle" x="100.4987562112089" y="-4" transform="" filter="url(#glow)" style="fill: #fff" >generate {}</text><text text-anchor="middle" x="100.4987562112089" y="-4" transform="" >generate {}</text></g><g transform="translate(100.0 410.0) rotate(1.1457628381751035) " ><rect x="0" y="-2.5" height="5" width="996.199980003999" fill="#81BFFC" ><title >c6 → n2 {:type "generate", :msg_id 4}</title></rect><use xlink:href="#ahead" x="1000.199980003999" y="0" /><text text-anchor="middle" x="500.0999900019995" y="-4" transform="" filter="url(#glow)" style="fill: #fff" >generate {}</text><text text-anchor="middle" x="500.0999900019995" y="-4" transform="" >generate {}</text></g><g transform="translate(300.0 450.0) rotate(1.9091524329963763) " ><rect x="0" y="-2.5" height="5" width="596.3332407921454" fill="#81BFFC" ><title >c7 → n1 {:type "generate", :msg_id 4}</title></rect><use xlink:href="#ahead" x="600.3332407921454" y="0" /><text text-anchor="middle" x="300.1666203960727" y="-4" transform="" filter="url(#glow)" style="fill: #fff" >generate {}</text><text text-anchor="middle" x="300.1666203960727" y="-4" transform="" >generate {}</text></g><g transform="translate(500.0 490.0) rotate(5.710593137499643) " ><rect x="0" y="-2.5" height="5" width="196.9975124224178" fill="#81BFFC" ><title >c8 → n0 {:type "generate", :msg_id 4}</title></rect><use xlink:href="#ahead" x="200.9975124224178" y="0" /><text text-anchor="middle" x="100.4987562112089" y="-4" transform="" filter="url(#glow)" style="fill: #fff" >generate {}</text><text text-anchor="middle" x="100.4987562112089" y="-4" transform="" >generate {}</text></g><g transform="translate(100.0 530.0) rotate(1.1457628381751035) " ><rect x="0" y="-2.5" height="5" width="996.199980003999" fill="#81BFFC" ><title >c6 → n2 {:type "generate", :msg_id 5}</title></rect><use xlink:href="#ahead" x="1000.199980003999" y="0" /><text text-anchor="middle" x="500.0999900019995" y="-4" transform="" filter="url(#glow)" style="fill: #fff" >generate {}</text><text text-anchor="middle" x="500.0999900019995" y="-4" transform="" >generate {}</text></g><g transform="translate(300.0 570.0) rotate(3.8140748342903543) " ><rect x="0" y="-2.5" height="5" width="597.3318551349163" fill="#81BFFC" ><title >c7 → n1 {:type "generate", :msg_id 5}</title></rect><use xlink:href="#ahead" x="601.3318551349163" y="0" /><text text-anchor="middle" x="300.66592756745814" y="-4" transform="" filter="url(#glow)" style="fill: #fff" >generate {}</text><text text-anchor="middle" x="300.66592756745814" y="-4" transform="" >generate {}</text></g><g transform="translate(500.0 590.0) rotate(11.309932474020215) " ><rect x="0" y="-2.5" height="5" width="199.9607805437114" fill="#81BFFC" ><title >c8 → n0 {:type "generate", :msg_id 5}</title></rect><use xlink:href="#ahead" x="203.9607805437114" y="0" /><text text-anchor="middle" x="101.9803902718557" y="-4" transform="" filter="url(#glow)" style="fill: #fff" >generate {}</text><text text-anchor="middle" x="101.9803902718557" y="-4" transform="" >generate {}</text></g><g transform="translate(100.0 650.0) rotate(1.1457628381751035) " ><rect x="0" y="-2.5" height="5" width="996.199980003999" fill="#81BFFC" ><title >c6 → n2 {:type "generate", :msg_id 6}</title></rect><use xlink:href="#ahead" x="1000.199980003999" y="0" /><text text-anchor="middle" x="500.0999900019995" y="-4" transform="" filter="url(#glow)" style="fill: #fff" >generate {}</text><text text-anchor="middle" x="500.0999900019995" y="-4" transform="" >generate {}</text></g><g transform="translate(500.0 690.0) rotate(5.710593137499643) " ><rect x="0" y="-2.5" height="5" width="196.9975124224178" fill="#81BFFC" ><title >c8 → n0 {:type "generate", :msg_id 6}</title></rect><use xlink:href="#ahead" x="200.9975124224178" y="0" /><text text-anchor="middle" x="100.4987562112089" y="-4" transform="" filter="url(#glow)" style="fill: #fff" >generate {}</text><text text-anchor="middle" x="100.4987562112089" y="-4" transform="" >generate {}</text></g><g transform="translate(300.0 730.0) rotate(1.9091524329963763) " ><rect x="0" y="-2.5" height="5" width="596.3332407921454" fill="#81BFFC" ><title >c7 → n1 {:type "generate", :msg_id 6}</title></rect><use xlink:href="#ahead" x="600.3332407921454" y="0" /><text text-anchor="middle" x="300.1666203960727" y="-4" transform="" filter="url(#glow)" style="fill: #fff" >generate {}</text><text text-anchor="middle" x="300.1666203960727" y="-4" transform="" >generate {}</text></g></g></svg>